<svg width="30" height="30" viewBox="0 0 30 30" fill="none" xmlns="http://www.w3.org/2000/svg">
<path d="M15.0033 7.30968C10.7468 7.30968 7.31344 10.743 7.31344 14.9996C7.31344 19.2561 10.7468 22.6895 15.0033 22.6895C19.2599 22.6895 22.6933 19.2561 22.6933 14.9996C22.6933 10.743 19.2599 7.30968 15.0033 7.30968ZM15.0033 19.999C12.2527 19.999 10.0039 17.757 10.0039 14.9996C10.0039 12.2422 12.246 10.0001 15.0033 10.0001C17.7607 10.0001 20.0028 12.2422 20.0028 14.9996C20.0028 17.757 17.754 19.999 15.0033 19.999ZM24.8015 6.99512C24.8015 7.99233 23.9983 8.78876 23.0078 8.78876C22.0106 8.78876 21.2142 7.98564 21.2142 6.99512C21.2142 6.0046 22.0173 5.20148 23.0078 5.20148C23.9983 5.20148 24.8015 6.0046 24.8015 6.99512ZM29.8946 8.81553C29.7808 6.41286 29.232 4.28458 27.4718 2.53109C25.7184 0.777609 23.5901 0.228808 21.1874 0.10834C18.7111 -0.032207 11.2889 -0.032207 8.8126 0.10834C6.41662 0.222115 4.28834 0.770916 2.52817 2.5244C0.767987 4.27789 0.225878 6.40616 0.10541 8.80884C-0.0351366 11.2851 -0.0351366 18.7073 0.10541 21.1836C0.219186 23.5863 0.767987 25.7146 2.52817 27.4681C4.28834 29.2216 6.40993 29.7704 8.8126 29.8908C11.2889 30.0314 18.7111 30.0314 21.1874 29.8908C23.5901 29.7771 25.7184 29.2283 27.4718 27.4681C29.2253 25.7146 29.7741 23.5863 29.8946 21.1836C30.0351 18.7073 30.0351 11.2918 29.8946 8.81553ZM26.6955 23.8406C26.1735 25.1524 25.1629 26.163 23.8444 26.6917C21.8701 27.4748 17.1852 27.2941 15.0033 27.2941C12.8215 27.2941 8.12995 27.4681 6.1623 26.6917C4.85053 26.1697 3.83993 25.1591 3.31121 23.8406C2.52817 21.8663 2.70887 17.1814 2.70887 14.9996C2.70887 12.8178 2.53486 8.12619 3.31121 6.15854C3.83324 4.84677 4.84384 3.83617 6.1623 3.30745C8.13664 2.5244 12.8215 2.7051 15.0033 2.7051C17.1852 2.7051 21.8767 2.53109 23.8444 3.30745C25.1562 3.82948 26.1668 4.84007 26.6955 6.15854C27.4785 8.13288 27.2978 12.8178 27.2978 14.9996C27.2978 17.1814 27.4785 21.873 26.6955 23.8406Z" fill="#374957"/>
</svg>
