<svg width="30" height="30" viewBox="0 0 30 30" fill="none" xmlns="http://www.w3.org/2000/svg">
<path d="M27.0458 0.769531H2.6438C1.52567 0.769531 0.617188 1.69072 0.617188 2.82156V27.179C0.617188 28.3099 1.52567 29.2311 2.6438 29.2311H27.0458C28.1639 29.2311 29.0787 28.3099 29.0787 27.179V2.82156C29.0787 1.69072 28.1639 0.769531 27.0458 0.769531ZM9.21918 25.1651H5.00077V11.5824H9.22553V25.1651H9.21918ZM7.10998 9.72729C5.75678 9.72729 4.66406 8.62822 4.66406 7.28138C4.66406 5.93454 5.75678 4.83547 7.10998 4.83547C8.45682 4.83547 9.55589 5.93454 9.55589 7.28138C9.55589 8.63457 8.46317 9.72729 7.10998 9.72729ZM25.0319 25.1651H20.8134V18.558C20.8134 16.9824 20.7817 14.9558 18.6217 14.9558C16.4235 14.9558 16.0868 16.6711 16.0868 18.4436V25.1651H11.8684V11.5824H15.9153V13.4375H15.9724C16.5379 12.3701 17.9165 11.2457 19.9685 11.2457C24.2377 11.2457 25.0319 14.0601 25.0319 17.7194V25.1651Z" fill="#374957"/>
</svg>
