<svg width="29" height="24" viewBox="0 0 29 24" fill="none" xmlns="http://www.w3.org/2000/svg">
<path d="M25.9989 6.20233C26.017 6.45515 26.017 6.70803 26.017 6.96085C26.017 14.6722 20.1477 23.5574 9.42036 23.5574C6.11547 23.5574 3.0454 22.6002 0.462891 20.9389C0.932452 20.993 1.38389 21.0111 1.87152 21.0111C4.59845 21.0111 7.10874 20.0901 9.11334 18.5189C6.5489 18.4647 4.39983 16.7852 3.65938 14.4736C4.0206 14.5277 4.38176 14.5638 4.76104 14.5638C5.28475 14.5638 5.80851 14.4916 6.29608 14.3652C3.6233 13.8234 1.61864 11.4757 1.61864 8.64036V8.56815C2.39517 9.00158 3.29822 9.27247 4.25529 9.30854C2.68412 8.26108 1.65478 6.47322 1.65478 4.45055C1.65478 3.36701 1.94367 2.37374 2.44937 1.50688C5.32083 5.04652 9.63705 7.35809 14.4769 7.61096C14.3866 7.17753 14.3324 6.72609 14.3324 6.2746C14.3324 3.05999 16.933 0.441406 20.1656 0.441406C21.8452 0.441406 23.3621 1.14572 24.4277 2.28346C25.746 2.03064 27.0101 1.54302 28.1298 0.874835C27.6964 2.22932 26.7754 3.36706 25.5654 4.08939C26.7393 3.96303 27.877 3.63789 28.9244 3.18645C28.13 4.34221 27.1366 5.37155 25.9989 6.20233Z" fill="#374957"/>
</svg>
