<svg width="30" height="30" viewBox="0 0 30 30" fill="none" xmlns="http://www.w3.org/2000/svg">
<path d="M25.0463 4.90535C22.3844 2.23708 18.8394 0.769531 15.0721 0.769531C7.29597 0.769531 0.968364 7.09714 0.968364 14.8732C0.968364 17.3573 1.61637 19.7841 2.84886 21.9251L0.847656 29.2311L8.32516 27.268C10.3835 28.3925 12.7024 28.9833 15.0657 28.9833H15.0721C22.8418 28.9833 29.3092 22.6557 29.3092 14.8796C29.3092 11.1123 27.7082 7.57362 25.0463 4.90535ZM15.0721 26.6073C12.9629 26.6073 10.8981 26.0419 9.10023 24.9745L8.67458 24.7204L4.24017 25.883L5.42183 21.5566L5.1423 21.1119C3.96699 19.2441 3.35075 17.0904 3.35075 14.8732C3.35075 8.41222 8.61105 3.15191 15.0784 3.15191C18.2105 3.15191 21.1519 4.37169 23.3628 6.5889C25.5736 8.8061 26.9332 11.7476 26.9268 14.8796C26.9268 21.347 21.5331 26.6073 15.0721 26.6073ZM21.5013 17.8274C21.1519 17.6495 19.4175 16.7982 19.0935 16.6839C18.7695 16.5631 18.5345 16.506 18.2994 16.8617C18.0643 17.2175 17.3909 18.0053 17.1813 18.2467C16.978 18.4818 16.7683 18.5135 16.4189 18.3356C14.3478 17.3001 12.9883 16.4869 11.6224 14.1426C11.2603 13.52 11.9845 13.5645 12.6579 12.2177C12.7723 11.9826 12.7151 11.7793 12.6262 11.6014C12.5372 11.4235 11.832 9.68917 11.5398 8.98399C11.2539 8.29786 10.9617 8.39316 10.7457 8.38045C10.5424 8.36775 10.3073 8.36775 10.0722 8.36775C9.83718 8.36775 9.456 8.45669 9.132 8.8061C8.80799 9.16187 7.89951 10.0132 7.89951 11.7476C7.89951 13.4819 9.16376 15.1591 9.33529 15.3942C9.51318 15.6293 11.8193 19.1869 15.358 20.718C17.5942 21.6837 18.4709 21.7663 19.5891 21.6011C20.2688 21.4994 21.6729 20.7498 21.9651 19.9239C22.2573 19.098 22.2573 18.3928 22.1684 18.2467C22.0858 18.0879 21.8507 17.9989 21.5013 17.8274Z" fill="#374957"/>
</svg>
