<svg width="32" height="32" viewBox="0 0 32 32" fill="none" xmlns="http://www.w3.org/2000/svg">
<path d="M25.3407 6.54199C22.8466 4.04199 19.5252 2.66699 15.9955 2.66699C8.70974 2.66699 2.78117 8.59556 2.78117 15.8813C2.78117 18.2087 3.38831 20.4825 4.54308 22.4884L2.66808 29.3337L9.67403 27.4944C11.6026 28.5479 13.7752 29.1015 15.9895 29.1015H15.9955C23.2752 29.1015 29.3347 23.1729 29.3347 15.8872C29.3347 12.3575 27.8347 9.04199 25.3407 6.54199ZM15.9955 26.8753C14.0193 26.8753 12.0847 26.3456 10.4002 25.3456L10.0014 25.1075L5.84665 26.1968L6.95379 22.1432L6.69189 21.7265C5.59069 19.9765 5.01331 17.9587 5.01331 15.8813C5.01331 9.82771 9.94189 4.89914 16.0014 4.89914C18.9359 4.89914 21.6919 6.04199 23.7633 8.11937C25.8347 10.1968 27.1086 12.9527 27.1026 15.8872C27.1026 21.9468 22.049 26.8753 15.9955 26.8753ZM22.0193 18.6491C21.6919 18.4825 20.0669 17.6849 19.7633 17.5777C19.4597 17.4646 19.2395 17.411 19.0193 17.7444C18.799 18.0777 18.1681 18.8158 17.9716 19.042C17.7812 19.2622 17.5847 19.292 17.2574 19.1253C15.3169 18.1551 14.0431 17.3932 12.7633 15.1968C12.424 14.6134 13.1026 14.6551 13.7336 13.3932C13.8407 13.1729 13.7871 12.9825 13.7038 12.8158C13.6205 12.6491 12.9597 11.0241 12.6859 10.3634C12.4181 9.72056 12.1443 9.80985 11.9419 9.79795C11.7514 9.78604 11.5312 9.78604 11.3109 9.78604C11.0907 9.78604 10.7336 9.86937 10.43 10.1968C10.1264 10.5301 9.27522 11.3277 9.27522 12.9527C9.27522 14.5777 10.4597 16.1491 10.6205 16.3694C10.7871 16.5896 12.9478 19.9229 16.2633 21.3575C18.3586 22.2622 19.18 22.3396 20.2276 22.1849C20.8645 22.0896 22.18 21.3872 22.4538 20.6134C22.7276 19.8396 22.7276 19.1789 22.6443 19.042C22.5669 18.8932 22.3466 18.8099 22.0193 18.6491Z" fill="white"/>
</svg>
